<mxfile host="app.diagrams.net" modified="2024-07-29T20:18:08.245Z" agent="Mozilla/5.0 (Windows NT 10.0; Win64; x64) AppleWebKit/537.36 (KHTML, like Gecko) Chrome/127.0.0.0 Safari/537.36" etag="nL5XbDeRvTMp1PXV1tjk" version="24.6.4" type="device">
  <diagram name="Page-1" id="jnrb3AnSm5W35_mpBj12">
    <mxGraphModel dx="1400" dy="751" grid="1" gridSize="10" guides="1" tooltips="1" connect="1" arrows="1" fold="1" page="1" pageScale="1" pageWidth="850" pageHeight="1100" math="0" shadow="0">
      <root>
        <mxCell id="0" />
        <mxCell id="1" parent="0" />
        <mxCell id="0dWEbN-ep3YHkkB7XKQ2-3" value="" style="edgeStyle=orthogonalEdgeStyle;rounded=0;orthogonalLoop=1;jettySize=auto;html=1;" edge="1" parent="1" source="0dWEbN-ep3YHkkB7XKQ2-1">
          <mxGeometry relative="1" as="geometry">
            <mxPoint x="410" y="250" as="targetPoint" />
          </mxGeometry>
        </mxCell>
        <mxCell id="0dWEbN-ep3YHkkB7XKQ2-1" value="sensor data&amp;nbsp;" style="rounded=0;whiteSpace=wrap;html=1;" vertex="1" parent="1">
          <mxGeometry x="350" y="170" width="120" height="40" as="geometry" />
        </mxCell>
        <mxCell id="0dWEbN-ep3YHkkB7XKQ2-9" style="edgeStyle=orthogonalEdgeStyle;rounded=0;orthogonalLoop=1;jettySize=auto;html=1;" edge="1" parent="1" source="0dWEbN-ep3YHkkB7XKQ2-8" target="0dWEbN-ep3YHkkB7XKQ2-10">
          <mxGeometry relative="1" as="geometry">
            <mxPoint x="410" y="360" as="targetPoint" />
          </mxGeometry>
        </mxCell>
        <mxCell id="0dWEbN-ep3YHkkB7XKQ2-8" value="Calculate Position Value&amp;nbsp;" style="rounded=0;whiteSpace=wrap;html=1;" vertex="1" parent="1">
          <mxGeometry x="350" y="250" width="120" height="50" as="geometry" />
        </mxCell>
        <mxCell id="0dWEbN-ep3YHkkB7XKQ2-11" style="edgeStyle=orthogonalEdgeStyle;rounded=0;orthogonalLoop=1;jettySize=auto;html=1;" edge="1" parent="1" source="0dWEbN-ep3YHkkB7XKQ2-10" target="0dWEbN-ep3YHkkB7XKQ2-12">
          <mxGeometry relative="1" as="geometry">
            <mxPoint x="410" y="450" as="targetPoint" />
          </mxGeometry>
        </mxCell>
        <mxCell id="0dWEbN-ep3YHkkB7XKQ2-10" value="Error calculation based of different sensor with different weight&amp;nbsp;" style="rounded=0;whiteSpace=wrap;html=1;" vertex="1" parent="1">
          <mxGeometry x="350" y="330" width="120" height="60" as="geometry" />
        </mxCell>
        <mxCell id="0dWEbN-ep3YHkkB7XKQ2-13" style="edgeStyle=orthogonalEdgeStyle;rounded=0;orthogonalLoop=1;jettySize=auto;html=1;" edge="1" parent="1" source="0dWEbN-ep3YHkkB7XKQ2-12" target="0dWEbN-ep3YHkkB7XKQ2-18">
          <mxGeometry relative="1" as="geometry">
            <mxPoint x="410" y="550" as="targetPoint" />
          </mxGeometry>
        </mxCell>
        <mxCell id="0dWEbN-ep3YHkkB7XKQ2-12" value="PID calculation(error)" style="rounded=0;whiteSpace=wrap;html=1;" vertex="1" parent="1">
          <mxGeometry x="350" y="420" width="120" height="60" as="geometry" />
        </mxCell>
        <mxCell id="0dWEbN-ep3YHkkB7XKQ2-14" value="Adjusting Motor Value" style="rounded=0;whiteSpace=wrap;html=1;" vertex="1" parent="1">
          <mxGeometry x="190" y="700" width="120" height="50" as="geometry" />
        </mxCell>
        <mxCell id="0dWEbN-ep3YHkkB7XKQ2-18" value="Checking if front line is available&amp;nbsp;" style="rounded=0;whiteSpace=wrap;html=1;" vertex="1" parent="1">
          <mxGeometry x="350" y="520" width="120" height="60" as="geometry" />
        </mxCell>
        <mxCell id="0dWEbN-ep3YHkkB7XKQ2-25" value="" style="endArrow=classic;html=1;rounded=0;exitX=0.5;exitY=1;exitDx=0;exitDy=0;" edge="1" parent="1" source="0dWEbN-ep3YHkkB7XKQ2-18">
          <mxGeometry width="50" height="50" relative="1" as="geometry">
            <mxPoint x="460" y="650" as="sourcePoint" />
            <mxPoint x="560" y="630" as="targetPoint" />
            <Array as="points">
              <mxPoint x="410" y="630" />
            </Array>
          </mxGeometry>
        </mxCell>
        <mxCell id="0dWEbN-ep3YHkkB7XKQ2-26" value="" style="endArrow=classic;html=1;rounded=0;" edge="1" parent="1" target="0dWEbN-ep3YHkkB7XKQ2-27">
          <mxGeometry width="50" height="50" relative="1" as="geometry">
            <mxPoint x="410" y="630" as="sourcePoint" />
            <mxPoint x="280" y="630" as="targetPoint" />
            <Array as="points" />
          </mxGeometry>
        </mxCell>
        <mxCell id="0dWEbN-ep3YHkkB7XKQ2-30" value="" style="edgeStyle=orthogonalEdgeStyle;rounded=0;orthogonalLoop=1;jettySize=auto;html=1;" edge="1" parent="1" source="0dWEbN-ep3YHkkB7XKQ2-27" target="0dWEbN-ep3YHkkB7XKQ2-14">
          <mxGeometry relative="1" as="geometry" />
        </mxCell>
        <mxCell id="0dWEbN-ep3YHkkB7XKQ2-27" value="Go Straight with high spped" style="rounded=0;whiteSpace=wrap;html=1;" vertex="1" parent="1">
          <mxGeometry x="190" y="600" width="120" height="60" as="geometry" />
        </mxCell>
        <mxCell id="0dWEbN-ep3YHkkB7XKQ2-31" value="" style="edgeStyle=orthogonalEdgeStyle;rounded=0;orthogonalLoop=1;jettySize=auto;html=1;" edge="1" parent="1" source="0dWEbN-ep3YHkkB7XKQ2-28" target="0dWEbN-ep3YHkkB7XKQ2-29">
          <mxGeometry relative="1" as="geometry" />
        </mxCell>
        <mxCell id="0dWEbN-ep3YHkkB7XKQ2-28" value="Take a turn&amp;nbsp;" style="rounded=0;whiteSpace=wrap;html=1;" vertex="1" parent="1">
          <mxGeometry x="530" y="600" width="120" height="60" as="geometry" />
        </mxCell>
        <mxCell id="0dWEbN-ep3YHkkB7XKQ2-29" value="Adjusting Motor Value" style="rounded=0;whiteSpace=wrap;html=1;" vertex="1" parent="1">
          <mxGeometry x="530" y="700" width="120" height="50" as="geometry" />
        </mxCell>
      </root>
    </mxGraphModel>
  </diagram>
</mxfile>
